<svg width="17" height="12" viewBox="0 0 17 12" fill="none" xmlns="http://www.w3.org/2000/svg">
<path d="M14.45 4.58571V0H10.2V1.71429H12.75V3.98571L9.792 7.71429H6.8V3.42857H0V9.42857H1.7C1.7 10.8514 2.839 12 4.25 12C5.661 12 6.8 10.8514 6.8 9.42857H10.608L14.45 4.58571ZM4.25 10.2857C3.7825 10.2857 3.4 9.9 3.4 9.42857H5.1C5.1 9.9 4.7175 10.2857 4.25 10.2857Z" fill="black"/>
<path d="M2.55 0.857147H6.8V2.57143H2.55V0.857147ZM14.45 6.85715C13.039 6.85715 11.9 8.00572 11.9 9.42858C11.9 10.8514 13.039 12 14.45 12C15.861 12 17 10.8514 17 9.42858C17 8.00572 15.861 6.85715 14.45 6.85715ZM14.45 10.2857C13.9825 10.2857 13.6 9.9 13.6 9.42858C13.6 8.95715 13.9825 8.57143 14.45 8.57143C14.9175 8.57143 15.3 8.95715 15.3 9.42858C15.3 9.9 14.9175 10.2857 14.45 10.2857Z" fill="black"/>
</svg>
