<svg width="15" height="14" viewBox="0 0 15 14" fill="none" xmlns="http://www.w3.org/2000/svg">
<path d="M12.8571 5.92308C12.8566 5.34509 12.702 4.77782 12.4092 4.28034C12.1165 3.78286 11.6964 3.37337 11.1927 3.09454C11.5723 2.69653 11.7847 2.16676 11.7857 1.61538H10.7143C10.714 1.90091 10.601 2.17467 10.4002 2.37657C10.1993 2.57847 9.92693 2.69202 9.64286 2.69231C8.80094 2.69343 7.99302 3.02631 7.39255 3.61948C6.79209 4.21266 6.44695 5.01883 6.43125 5.86492C5.7444 5.16176 5.35884 4.21619 5.35714 3.23077C5.35573 2.75456 5.19719 2.29227 4.90636 1.91634C4.61552 1.54041 4.20883 1.27208 3.75 1.15338V0H2.67857V1.15338C2.21974 1.27208 1.81305 1.54041 1.52221 1.91634C1.23138 2.29227 1.07284 2.75456 1.07143 3.23077V5.92308H0V6.46154C0 8.46086 0.790176 10.3783 2.1967 11.792C3.60322 13.2058 5.51088 14 7.5 14C9.48912 14 11.3968 13.2058 12.8033 11.792C14.2098 10.3783 15 8.46086 15 6.46154V5.92308H12.8571ZM9.64286 3.76923C10.211 3.76994 10.7556 3.99709 11.1573 4.40087C11.559 4.80464 11.785 5.35206 11.7857 5.92308H7.5C7.50071 5.35206 7.7267 4.80464 8.12841 4.40087C8.53012 3.99709 9.07475 3.76994 9.64286 3.76923ZM2.14286 3.23077C2.14286 2.94515 2.25574 2.67123 2.45667 2.46927C2.6576 2.26731 2.93013 2.15385 3.21429 2.15385C3.49845 2.15385 3.77097 2.26731 3.9719 2.46927C4.17283 2.67123 4.28571 2.94515 4.28571 3.23077C4.28785 4.19012 4.57351 5.1272 5.10643 5.92308H2.14286V3.23077ZM7.5 12.9231C5.88831 12.9211 4.336 12.3115 3.14979 11.2148C1.96359 10.1181 1.22979 8.61414 1.09339 7H13.9071C13.7707 8.61424 13.0369 10.1183 11.8505 11.215C10.6642 12.3117 9.11178 12.9212 7.5 12.9231V12.9231Z" fill="black"/>
</svg>
