<svg width="24" height="24" viewBox="0 0 24 24" fill="none" xmlns="http://www.w3.org/2000/svg">
<path d="M12 8.01393C9.80512 8.01393 8.01393 9.80512 8.01393 12C8.01393 14.1949 9.80512 15.9861 12 15.9861C14.1949 15.9861 15.9861 14.1949 15.9861 12C15.9861 9.80512 14.1949 8.01393 12 8.01393ZM23.9552 12C23.9552 10.3494 23.9702 8.71366 23.8775 7.066C23.7848 5.15221 23.3482 3.45372 21.9487 2.05426C20.5463 0.651805 18.8508 0.218212 16.937 0.125512C15.2863 0.0328129 13.6506 0.0477644 12.003 0.0477644C10.3523 0.0477644 8.71665 0.0328129 7.06899 0.125512C5.1552 0.218212 3.45671 0.654795 2.05725 2.05426C0.654796 3.45671 0.221202 5.15221 0.128503 7.066C0.0358036 8.71665 0.0507552 10.3523 0.0507552 12C0.0507552 13.6477 0.0358036 15.2863 0.128503 16.934C0.221202 18.8478 0.657787 20.5463 2.05725 21.9457C3.4597 23.3482 5.1552 23.7818 7.06899 23.8745C8.71964 23.9672 10.3553 23.9522 12.003 23.9522C13.6536 23.9522 15.2893 23.9672 16.937 23.8745C18.8508 23.7818 20.5493 23.3452 21.9487 21.9457C23.3512 20.5433 23.7848 18.8478 23.8775 16.934C23.9732 15.2863 23.9552 13.6506 23.9552 12V12ZM12 18.1331C8.60601 18.1331 5.86689 15.394 5.86689 12C5.86689 8.60601 8.60601 5.86689 12 5.86689C15.394 5.86689 18.1331 8.60601 18.1331 12C18.1331 15.394 15.394 18.1331 12 18.1331ZM18.3843 7.04806C17.5919 7.04806 16.9519 6.40813 16.9519 5.6157C16.9519 4.82328 17.5919 4.18335 18.3843 4.18335C19.1767 4.18335 19.8167 4.82328 19.8167 5.6157C19.8169 5.80387 19.78 5.99023 19.7081 6.16412C19.6362 6.33801 19.5307 6.49601 19.3977 6.62906C19.2646 6.76211 19.1066 6.86761 18.9327 6.93951C18.7588 7.01141 18.5725 7.0483 18.3843 7.04806V7.04806Z" fill="white"/>
</svg>
