<svg width="74" height="15" viewBox="0 0 74 15" fill="none" xmlns="http://www.w3.org/2000/svg">
<path d="M20.672 7.668H22.448V11.076C21.992 11.42 21.464 11.684 20.864 11.868C20.264 12.052 19.66 12.144 19.052 12.144C18.18 12.144 17.396 11.96 16.7 11.592C16.004 11.216 15.456 10.7 15.056 10.044C14.664 9.38 14.468 8.632 14.468 7.8C14.468 6.968 14.664 6.224 15.056 5.568C15.456 4.904 16.008 4.388 16.712 4.02C17.416 3.644 18.208 3.456 19.088 3.456C19.824 3.456 20.492 3.58 21.092 3.828C21.692 4.076 22.196 4.436 22.604 4.908L21.356 6.06C20.756 5.428 20.032 5.112 19.184 5.112C18.648 5.112 18.172 5.224 17.756 5.448C17.34 5.672 17.016 5.988 16.784 6.396C16.552 6.804 16.436 7.272 16.436 7.8C16.436 8.32 16.552 8.784 16.784 9.192C17.016 9.6 17.336 9.92 17.744 10.152C18.16 10.376 18.632 10.488 19.16 10.488C19.72 10.488 20.224 10.368 20.672 10.128V7.668ZM25.9098 6.396C26.1338 6.084 26.4338 5.848 26.8098 5.688C27.1938 5.528 27.6338 5.448 28.1298 5.448V7.176C27.9218 7.16 27.7818 7.152 27.7098 7.152C27.1738 7.152 26.7538 7.304 26.4498 7.608C26.1458 7.904 25.9938 8.352 25.9938 8.952V12H24.1218V5.544H25.9098V6.396ZM32.2563 12.096C31.5763 12.096 30.9643 11.956 30.4203 11.676C29.8843 11.388 29.4643 10.992 29.1603 10.488C28.8563 9.984 28.7043 9.412 28.7043 8.772C28.7043 8.132 28.8563 7.56 29.1603 7.056C29.4643 6.552 29.8843 6.16 30.4203 5.88C30.9643 5.592 31.5763 5.448 32.2563 5.448C32.9363 5.448 33.5443 5.592 34.0803 5.88C34.6163 6.16 35.0363 6.552 35.3403 7.056C35.6443 7.56 35.7963 8.132 35.7963 8.772C35.7963 9.412 35.6443 9.984 35.3403 10.488C35.0363 10.992 34.6163 11.388 34.0803 11.676C33.5443 11.956 32.9363 12.096 32.2563 12.096ZM32.2563 10.56C32.7363 10.56 33.1283 10.4 33.4323 10.08C33.7443 9.752 33.9003 9.316 33.9003 8.772C33.9003 8.228 33.7443 7.796 33.4323 7.476C33.1283 7.148 32.7363 6.984 32.2563 6.984C31.7763 6.984 31.3803 7.148 31.0683 7.476C30.7563 7.796 30.6003 8.228 30.6003 8.772C30.6003 9.316 30.7563 9.752 31.0683 10.08C31.3803 10.4 31.7763 10.56 32.2563 10.56ZM40.1676 12.096C39.4796 12.096 38.8596 11.956 38.3076 11.676C37.7636 11.388 37.3356 10.992 37.0236 10.488C36.7196 9.984 36.5676 9.412 36.5676 8.772C36.5676 8.132 36.7196 7.56 37.0236 7.056C37.3356 6.552 37.7636 6.16 38.3076 5.88C38.8596 5.592 39.4796 5.448 40.1676 5.448C40.8476 5.448 41.4396 5.592 41.9436 5.88C42.4556 6.16 42.8276 6.564 43.0596 7.092L41.6076 7.872C41.2716 7.28 40.7876 6.984 40.1556 6.984C39.6676 6.984 39.2636 7.144 38.9436 7.464C38.6236 7.784 38.4636 8.22 38.4636 8.772C38.4636 9.324 38.6236 9.76 38.9436 10.08C39.2636 10.4 39.6676 10.56 40.1556 10.56C40.7956 10.56 41.2796 10.264 41.6076 9.672L43.0596 10.464C42.8276 10.976 42.4556 11.376 41.9436 11.664C41.4396 11.952 40.8476 12.096 40.1676 12.096ZM50.3794 8.796C50.3794 8.82 50.3674 8.988 50.3434 9.3H45.4594C45.5474 9.7 45.7554 10.016 46.0834 10.248C46.4114 10.48 46.8194 10.596 47.3074 10.596C47.6434 10.596 47.9394 10.548 48.1954 10.452C48.4594 10.348 48.7034 10.188 48.9274 9.972L49.9234 11.052C49.3154 11.748 48.4274 12.096 47.2594 12.096C46.5314 12.096 45.8874 11.956 45.3274 11.676C44.7674 11.388 44.3354 10.992 44.0314 10.488C43.7274 9.984 43.5754 9.412 43.5754 8.772C43.5754 8.14 43.7234 7.572 44.0194 7.068C44.3234 6.556 44.7354 6.16 45.2554 5.88C45.7834 5.592 46.3714 5.448 47.0194 5.448C47.6514 5.448 48.2234 5.584 48.7354 5.856C49.2474 6.128 49.6474 6.52 49.9354 7.032C50.2314 7.536 50.3794 8.124 50.3794 8.796ZM47.0314 6.864C46.6074 6.864 46.2514 6.984 45.9634 7.224C45.6754 7.464 45.4994 7.792 45.4354 8.208H48.6154C48.5514 7.8 48.3754 7.476 48.0874 7.236C47.7994 6.988 47.4474 6.864 47.0314 6.864ZM53.4137 6.396C53.6377 6.084 53.9377 5.848 54.3137 5.688C54.6977 5.528 55.1377 5.448 55.6337 5.448V7.176C55.4257 7.16 55.2857 7.152 55.2137 7.152C54.6777 7.152 54.2577 7.304 53.9537 7.608C53.6497 7.904 53.4977 8.352 53.4977 8.952V12H51.6257V5.544H53.4137V6.396ZM56.7468 5.544H58.6188V12H56.7468V5.544ZM57.6828 4.644C57.3388 4.644 57.0588 4.544 56.8428 4.344C56.6268 4.144 56.5188 3.896 56.5188 3.6C56.5188 3.304 56.6268 3.056 56.8428 2.856C57.0588 2.656 57.3388 2.556 57.6828 2.556C58.0268 2.556 58.3068 2.652 58.5228 2.844C58.7388 3.036 58.8468 3.276 58.8468 3.564C58.8468 3.876 58.7388 4.136 58.5228 4.344C58.3068 4.544 58.0268 4.644 57.6828 4.644ZM66.6802 8.796C66.6802 8.82 66.6682 8.988 66.6442 9.3H61.7602C61.8482 9.7 62.0562 10.016 62.3842 10.248C62.7122 10.48 63.1202 10.596 63.6082 10.596C63.9442 10.596 64.2402 10.548 64.4962 10.452C64.7602 10.348 65.0042 10.188 65.2282 9.972L66.2242 11.052C65.6162 11.748 64.7282 12.096 63.5602 12.096C62.8322 12.096 62.1882 11.956 61.6282 11.676C61.0682 11.388 60.6362 10.992 60.3322 10.488C60.0282 9.984 59.8762 9.412 59.8762 8.772C59.8762 8.14 60.0242 7.572 60.3202 7.068C60.6242 6.556 61.0362 6.16 61.5562 5.88C62.0842 5.592 62.6722 5.448 63.3202 5.448C63.9522 5.448 64.5242 5.584 65.0362 5.856C65.5482 6.128 65.9482 6.52 66.2362 7.032C66.5322 7.536 66.6802 8.124 66.6802 8.796ZM63.3322 6.864C62.9082 6.864 62.5522 6.984 62.2642 7.224C61.9762 7.464 61.8002 7.792 61.7362 8.208H64.9162C64.8522 7.8 64.6762 7.476 64.3882 7.236C64.1002 6.988 63.7482 6.864 63.3322 6.864ZM70.0985 12.096C69.5625 12.096 69.0385 12.032 68.5265 11.904C68.0145 11.768 67.6065 11.6 67.3025 11.4L67.9265 10.056C68.2145 10.24 68.5625 10.392 68.9705 10.512C69.3785 10.624 69.7785 10.68 70.1705 10.68C70.9625 10.68 71.3585 10.484 71.3585 10.092C71.3585 9.908 71.2505 9.776 71.0345 9.696C70.8185 9.616 70.4865 9.548 70.0385 9.492C69.5105 9.412 69.0745 9.32 68.7305 9.216C68.3865 9.112 68.0865 8.928 67.8305 8.664C67.5825 8.4 67.4585 8.024 67.4585 7.536C67.4585 7.128 67.5745 6.768 67.8065 6.456C68.0465 6.136 68.3905 5.888 68.8385 5.712C69.2945 5.536 69.8305 5.448 70.4465 5.448C70.9025 5.448 71.3545 5.5 71.8025 5.604C72.2585 5.7 72.6345 5.836 72.9305 6.012L72.3065 7.344C71.7385 7.024 71.1185 6.864 70.4465 6.864C70.0465 6.864 69.7465 6.92 69.5465 7.032C69.3465 7.144 69.2465 7.288 69.2465 7.464C69.2465 7.664 69.3545 7.804 69.5705 7.884C69.7865 7.964 70.1305 8.04 70.6025 8.112C71.1305 8.2 71.5625 8.296 71.8985 8.4C72.2345 8.496 72.5265 8.676 72.7745 8.94C73.0225 9.204 73.1465 9.572 73.1465 10.044C73.1465 10.444 73.0265 10.8 72.7865 11.112C72.5465 11.424 72.1945 11.668 71.7305 11.844C71.2745 12.012 70.7305 12.096 70.0985 12.096Z" fill="white"/>
<path d="M12.5912 1.99242C12.4632 1.69969 12.0973 1.68798 11.9441 1.96432C11.2353 3.22659 9.96632 4.01346 8.51669 4.01346H6.68751C4.26383 4.01346 2.29746 6.02747 2.29746 8.50985C2.29746 8.67378 2.31575 8.83068 2.33175 8.98993C3.79053 7.9197 5.89638 7.01105 8.88253 7.01105C9.08374 7.01105 9.24837 7.17966 9.24837 7.38575C9.24837 7.59183 9.08374 7.76045 8.88253 7.76045C3.13431 7.76045 0.696918 11.3693 0.157308 12.7252C0.00640013 13.1069 0.184746 13.5425 0.557443 13.6994C0.932426 13.8587 1.35771 13.6737 1.51319 13.2943C1.54749 13.21 1.99107 12.1725 3.15717 11.1726C3.898 12.2006 5.30647 13.1819 7.15624 12.9805C10.746 12.7135 13.2726 9.41615 13.2726 5.37877C13.2726 4.20315 13.0256 2.98538 12.5912 1.99242V1.99242Z" fill="white"/>
</svg>
