<svg width="19" height="11" viewBox="0 0 19 11" fill="none" xmlns="http://www.w3.org/2000/svg">
<path d="M9.5 2.29167C7.92597 2.29167 6.65 3.72797 6.65 5.5C6.65 7.27174 7.92597 8.70833 9.5 8.70833C11.0734 8.70833 12.35 7.27232 12.35 5.5C12.35 3.72797 11.074 2.29167 9.5 2.29167ZM10.6875 7.10417C10.6875 7.23078 10.5812 7.33333 10.45 7.33333H8.55C8.41878 7.33333 8.3125 7.23078 8.3125 7.10417V6.64583C8.3125 6.51922 8.41878 6.41667 8.55 6.41667H9.025V4.82854L9.01105 4.83742C8.98511 4.85413 8.95601 4.86573 8.92542 4.87158C8.89483 4.87742 8.86334 4.87739 8.83277 4.87148C8.80219 4.86558 8.77312 4.85391 8.74722 4.83715C8.72131 4.8204 8.69909 4.79888 8.68181 4.77383L8.41819 4.39255C8.40088 4.36752 8.38885 4.33945 8.38279 4.30993C8.37673 4.28041 8.37677 4.25003 8.38289 4.22053C8.38901 4.19102 8.4011 4.16297 8.41846 4.13798C8.43583 4.11298 8.45813 4.09154 8.48409 4.07487L8.9392 3.78211C9.05621 3.70683 9.19371 3.66666 9.33434 3.66667H9.7375C9.86872 3.66667 9.975 3.76922 9.975 3.89583V6.41667H10.45C10.5812 6.41667 10.6875 6.51922 10.6875 6.64583V7.10417ZM18.05 0H0.95C0.425422 0 0 0.410495 0 0.916667V10.0833C0 10.5895 0.425422 11 0.95 11H18.05C18.5746 11 19 10.5895 19 10.0833V0.916667C19 0.410495 18.5746 0 18.05 0ZM17.575 7.79167C16.5255 7.79167 15.675 8.61237 15.675 9.625H3.325C3.325 8.61237 2.47445 7.79167 1.425 7.79167V3.20833C2.47445 3.20833 3.325 2.38763 3.325 1.375H15.675C15.675 2.38763 16.5255 3.20833 17.575 3.20833V7.79167Z" fill="black"/>
</svg>
